<svg width="138" height="70" viewBox="0 0 138 70" fill="none" xmlns="http://www.w3.org/2000/svg">
<g clip-path="url(#clip0_36517_95)">
<path d="M138 0H0L59.5 65.7C64.7 71.5 73.3 71.5 78.5 65.7L138 0Z" fill="#81B3D3"/>
<path d="M36.7 0.5L68.8 38.4L100.8 0.7L36.7 0.5Z" fill="#23A9E1"/>
<path d="M61.1 14.6999H78.4C77.1 13.8999 74 10.0999 72.4 11.4999C72.3 11.5999 67.5 5.79992 64.4 8.59992C61.7 11.0999 60.4 8.29992 57.4 10.1999C53.8 12.5999 59.4 13.8999 61.1 14.6999ZM87.8 11.1999L78 11.2999C81.9 6.79992 83.6 7.29992 87.8 11.1999Z" fill="white"/>
<path d="M97.6 3.6V1.2H99.7L97.6 3.6ZM48.4 13C48.5 13.1 50.8 10.6 54.5 8.1C57.9 5.8 63.1 3.2 68.9 3.2C74.7 3.2 80 5.9 83.4 8.2C87.1 10.6 89.4 13 89.5 13.1L87 16.1C82.5 16.7 79.3 20 74.9 19.3C72.7 18.9 72.6 17.7 72 16.4C71.5 15.4 70.7 15.6 69.7 15.2C68.8 14.8 68.2 14.1 66.3 14.5C64.7 14.9 64.5 17.4 62.4 17.3C61.3 17.2 61.2 15.7 59.6 13.7C55.5 8.8 51.7 9.5 49.1 14L68.7 37.3L48.4 13ZM40 1.2V3.1L38.4 1.2H40ZM93.9 1.2H97.1V4.2L93.9 8V1.2ZM89.8 12.6V1.2H93.3V8.6L89.8 12.6C89.9 12.6 89.8 12.6 89.8 12.6ZM89.3 2.2V12.1C88.2 11 87 10 85.7 9.1L89.3 2.2ZM85.2 1.9V8.7C84.7 8.4 84.3 8 83.7 7.7C83 7.3 82.3 6.8 81.5 6.4L85.2 1.9ZM80.8 1.7V6C79.8 5.5 78.7 5 77.7 4.5L80.8 1.7ZM81.4 1.2H85.1L81.4 5.8V1.2ZM85.7 1.2H89.3L85.7 8.3V1.2ZM76.9 1.2H80.8L77.3 4.3C77.2 4.3 77.1 4.2 77 4.2L76.9 1.2ZM76.4 1.6V4C75.4 3.6 74.4 3.3 73.3 3.1L76.4 1.6ZM72.2 1.6V2.9C71.5 2.8 70.8 2.7 70 2.6L72.2 1.6ZM65.4 1.6L67.6 2.6C66.8 2.6 66.1 2.7 65.4 2.9V1.6ZM61.3 1.6L64.4 3.1C63.3 3.3 62.3 3.6 61.3 4V1.6ZM64.9 2.8L61.6 1.2H64.9V2.8ZM68.4 2.4L65.6 1.1H68.4V2.4ZM69.1 1.2H72L69.1 2.5V1.2ZM72.8 1.2H76L72.8 2.8V1.2ZM60.4 4.3L56.9 1.2H60.8V4.2L60.4 4.3ZM56.8 1.7L59.9 4.4C58.8 4.8 57.8 5.3 56.8 5.9V1.7ZM52.5 1.9L56.1 6.4C54.8 7.1 53.6 7.9 52.5 8.8V1.9ZM48.3 2.2L51.9 9.2C50.6 10.2 49.4 11.2 48.3 12.4V2.2ZM52 8.2L48.4 1.1H52V8.2ZM56.3 5.7L52.6 1.1H56.3V5.7ZM43.7 7.5L40.5 3.7V1.2H43.7V7.5ZM44.3 1.2H47.8V12.4L44.3 8.2V1.2ZM69.1 0H36V14.6L68.8 54.5L69 54.2L102 15V0H69.1Z" fill="#491213"/>
<path d="M66.2 46L68.8 41.8L71.4 46L68.8 50.2001L66.2 46Z" fill="#23A9E1"/>
<path d="M74.2 30.6C70.8 28.6 71.6 27.1 74.4 25.7C75.9 25 79.2 22.3 80.5 23.2L74.2 30.6ZM71.9 33.1C69.9 33 67.6 32.7 65.6 33.2C66.8 33.5 69.8 34.4 67 35.1C68 36.5 69.6 36.4 70.6 35.2C70.2 35 69.9 34.7 69.6 34.5C70.7 34.2 71.7 33.6 71.9 33.1ZM73.1 31.5C72.2 30.7 71.2 30.7 70.4 31.5C69.2 29.4 65 30.1 63 29.8C64.1 32.4 72.6 32.9 73.1 31.5ZM66.3 29.3C64.7 28.8 59.5 28.9 62.9 27.5C64 27.1 69.6 27.6 66.3 29.3ZM68.3 26.3C67.8 25.2 68.7 23.9 70 24.9C71.2 25.7 69.4 26.9 68.3 26.3ZM65.4 26.4C63.1 27.1 60.1 25.6 63.8 24.9C66.1 24.4 68.5 25.4 65.4 26.4C65.5 26.4 65.3 26.4 65.4 26.4ZM62.8 20.2C62.3 21.8 61.3 22.1 61.4 20.2C61.5 17.9 63 18.5 64.6 17.6C65.9 16.9 66.6 14.2 68.9 15.8C69.9 16.5 71.1 15.9 71.4 17C71.4 16.9 68.5 23.7 70.1 23.7C66.9 23.7 68.3 19.9 69.5 17.3C68.3 17.9 66.4 21.6 68 22.3C67.2 23.4 64.6 24.9 63.3 23.8C62.2 22.8 62.8 21.5 62.8 20.2ZM58.8 23C53.2 23 57 14.4 58.9 14.9C61.1 15.6 60.8 23.1 58.8 23ZM52.6 14.8C50 14.7 51.1 12.2 52.9 11.7C54.6 11.2 58.1 12.8 59.3 13.9C57.5 14.5 55.2 14.4 53.2 14.5C53 12.5 52.5 13.2 52.6 14.8Z" fill="#DC6243"/>
<path d="M71.8 25.8001C68.9 22.8001 76.1 23.1001 77.3 22.0001C78.1 22.3001 84.3 16.6001 85.8 17.0001C84.7 18.3001 82.4 22.3001 80.8 22.3001C79.5 22.3001 78.2 22.1001 77.2 23.0001C75.7 24.4001 73.3 25.1001 71.8 25.8001Z" fill="#F49774"/>
<path d="M72.7 22.2C71.1 23.1 69.6 19.7 72.4 20C74.2 20.2 76.1 19.8 77.8 20.1C76.5 21.6 74.7 22.4 72.7 22.2Z" fill="#F4B1A4"/>
<path d="M51.1 20.9001C51.4 21.3001 51.7 21.7001 51.6 22.3001C51.6 22.7001 51 23.3001 51.4 23.5001L52.9 21.7001C52.5 21.6001 49.4 17.9001 49.4 17.5001L47.3 18.6001C47.4 19.0001 48.1 18.6001 48.5 18.6001C49 18.6001 49.4 19.0001 49.8 19.3001C48.7 20.2001 46 22.6001 45.7 22.6001C45.6 22.6001 45 22.2001 45 22.6001C45 22.8001 45.6 23.3001 45.7 23.4001L47.1 25.1001C47.5 24.9001 47 24.6001 47.2 24.3001C47.3 24.1001 50.4 21.6001 51.1 20.9001ZM47.7 16.4001C48 16.3001 48.1 16.7001 48.3 16.4001L46.7 14.5001C46.5 14.2001 46.2 13.9001 46.2 14.5001C46.3 14.9001 42.2 18.2001 42 18.3001C41.7 18.4001 41.5 18.0001 41.3 18.4001C41.8 19.0001 42.2 19.5001 42.7 20.1001C42.9 20.3001 43 20.5001 43.2 20.7001C43.4 20.9001 43.3 20.3001 43.3 20.3001C43.2 20.0001 43.6 19.7001 43.9 19.5001C44.9 18.5001 47.4 16.4001 47.7 16.4001ZM42 15.8001C40.9 16.1001 39.6 15.7001 39.3 14.5001C38.9 13.3001 39.7 12.1001 40.6 11.4001C41.5 10.7001 42.9 10.8001 43.4 11.9001C43.6 12.4001 43.5 13.0001 43.3 13.5001C43.2 13.8001 42.9 14.1001 43.3 14.3001C43.9 13.6001 44.4 12.9001 45 12.2001C44.3 11.8001 44 11.1001 43.5 10.5001C42.9 9.80008 42.2 9.10008 41.2 9.00008C39.3 8.70008 37.6 10.7001 37.4 12.4001C37.3 13.3001 37.6 14.2001 38.2 15.0001C38.7 15.6001 39.4 16.1001 39.8 16.8001C40 16.9001 41.6 16.1001 41.9 16.0001C42.1 16.0001 42 15.9001 42 15.8001C41.5 16.0001 42 15.8001 42 15.8001ZM67.5 39.4001C66.8 38.9001 64.9 36.4001 64.5 35.9001L64.3 35.6001L64.1 35.7001C64 35.8001 64.2 36.1001 64.1 36.3001C63.6 37.1001 60.4 39.5001 60.2 39.7001C59.8 39.9001 59.4 39.6001 59.2 39.9001C59.7 40.5001 61 42.2001 61.2 42.2001C61.5 42.2001 61.3 41.7001 61.3 41.6001C61.4 41.4001 63 40.0001 63.6 39.5001C63.8 39.3001 64 39.8001 64.2 40.0001C64.4 40.3001 64.5 40.7001 64.4 41.0001C64.3 41.2001 63.9 41.6001 64.2 41.8001C64.6 41.3001 65.7 40.0001 65.9 39.8001C66.1 39.6001 65.5 39.8001 65.6 39.7001C65.4 39.8001 65.1 39.9001 64.9 39.7001C64.8 39.7001 64.2 39.0001 64.3 38.9001C64.6 38.7001 64.9 38.3001 65.3 38.2001C65.9 38.1001 66.3 39.2001 66.4 39.6001C66.5 40.0001 66.5 40.4001 66.3 40.7001C66.2 41.0001 66 41.2001 66.3 41.3001L67.7 39.4001C67.7 39.5001 67.6 39.5001 67.5 39.4001C67.4 39.4001 67.6 39.5001 67.5 39.4001ZM58.3 30.5001C57.6 30.5001 56.9 30.8001 56.3 31.3001C54.9 32.5001 54.7 34.6001 55.8 36.1001C57.1 37.8001 59.2 38.0001 60.9 36.8001C62.3 35.6001 62.5 33.5001 61.4 32.0001C60.6 31.0001 59.4 30.5001 58.3 30.5001ZM59.5 31.9001C60.4 31.8001 61 32.7001 60.6 33.7001C60.2 34.7001 59.2 35.7001 58.2 36.1001C57 36.6001 56.2 35.6001 56.7 34.4001C57.1 33.4001 58.1 32.4001 59.1 32.0001C59.2 32.0001 59.3 31.9001 59.5 31.9001ZM56.7 27.3001C57 27.3001 57.3 27.7001 57.5 27.3001L56.1 25.6001C55.7 25.8001 56.1 26.0001 56 26.2001C55.8 26.5001 54.3 26.7001 53.9 26.8001C54 26.4001 54.5 25.1001 54.7 25.0001C55.1 24.7001 55.3 25.3001 55.5 24.9001L53.7 22.8001C53.5 22.6001 53.3 22.1001 53.1 22.4001C53.1 22.4001 53.1 23.4001 53 23.5001C52.9 23.7001 52.4 25.9001 51.8 26.4001C51.5 26.7001 50.3 27.7001 50 27.8001C49.7 27.9001 49.5 27.4001 49.2 27.8001L50.8 29.7001C50.9 29.8001 51.2 30.3001 51.3 30.3001C51.6 30.4001 51.3 29.7001 51.4 29.6001C51.5 29.3001 53 27.8001 53.7 27.7001C54.6 27.5001 55.7 27.2001 56.7 27.3001C56.9 27.3001 56.5 27.3001 56.7 27.3001ZM80.9 34.0001C81 34.4001 81.1 34.9001 81 35.3001C80.9 35.9001 80.4 37.2001 79.6 36.8001C78.8 36.4001 78.2 35.7001 77.5 35.1001C78 34.5001 78.5 34.0001 79.4 34.3001C79.6 34.4001 79.8 34.3001 79.6 34.1001C79.3 33.9001 77.6 32.8001 77.5 32.9001C77.3 33.1001 77.8 33.5001 77.6 33.9001C77.5 34.2001 77.2 34.4001 77 34.7001C76.5 34.3001 75.8 33.9001 76.3 33.2001C76.7 32.8001 77.1 32.4001 77.7 32.3001C78.1 32.2001 78.9 32.6001 79 32.2001C78.3 31.9001 77.6 31.5001 76.9 31.2001C77 31.7001 74.7 34.1001 74.2 34.7001C74.1 34.8001 73.8 35.1001 73.8 35.2001C73.8 35.5001 74.2 35.3001 74.2 35.3001C74.5 35.2001 78.6 38.6001 78.7 38.9001C78.8 39.1001 78.6 39.3001 78.7 39.4001C78.7 39.4001 78.8 39.5001 78.9 39.5001C79.2 39.2001 81.8 35.6001 82.4 35.5001C81.9 34.7001 81.4 33.9001 80.9 33.1001C80.5 33.3001 80.8 33.8001 80.9 34.0001ZM76.9 38.4001C75.6 37.5001 73.3 39.2001 72.9 39.4001C72.2 39.7001 71.7 39.0001 72.1 38.4001C72.4 37.9001 73 37.6001 73.6 37.6001C73.8 37.6001 74.5 37.7001 74.5 37.6001C74.6 37.5001 74.6 37.5001 74.5 37.4001C73.9 37.0001 73.4 36.6001 72.8 36.3001C72.7 37.0001 71.9 37.4001 71.5 37.9001C71 38.5001 70.5 39.2001 70.5 39.9001C70.5 40.6001 70.9 41.3001 71.6 41.6001C72.3 42.0001 73.1 41.7001 73.8 41.3001C74.2 41.0001 74.6 40.7001 75 40.5001C75.6 40.2001 76.5 40.5001 76.3 41.3001C76.1 42.0001 75.4 42.6001 74.7 42.8001C74.3 42.9001 73.9 42.9001 73.5 42.7001C73.2 42.6001 72.9 42.2001 72.7 42.6001L75 44.2001C75.1 43.7001 75.3 43.5001 75.7 43.2001C76.2 42.8001 76.6 42.3001 77 41.8001C77.8 40.9001 78.1 39.3001 76.9 38.4001ZM94.5 10.3001C94.5 10.4001 94.5 10.4001 94.5 10.3001L93.6 11.3001L92.8 12.3001C92.6 12.5001 92.5 12.6001 92.8 12.8001C93.3 12.5001 96.3 17.6001 96.1 18.3001C95.6 18.5001 91.6 15.0001 91.5 14.8001C91.5 14.7001 91.7 14.1001 91.4 14.2001C91.3 14.2001 90.9 14.8001 90.8 14.9001L90.2 15.6001C90.4 15.9001 90.5 15.6001 90.8 15.6001C91 15.7001 92 16.5001 92.3 16.7001C91.8 16.7001 90.6 16.8001 90.4 16.8001C89.8 16.9001 90.1 16.4001 89.7 16.2001L88.2 18.0001L87.3 19.0001C87.3 19.0001 87.3 19.0001 87.3 19.1001C87.5 19.3001 87.4 19.2001 87.7 19.1001C88 19.0001 92 22.3001 92.1 22.5001C92.3 22.8001 92 23.1001 92.4 23.3001L93.6 21.9001C93.7 21.8001 93.7 21.8001 93.6 21.8001C93.3 21.6001 93.3 21.9001 92.9 21.9001C92.6 21.8001 90 19.7001 89.1 18.9001L94.4 18.7001C94.6 18.7001 95.1 19.3001 95.1 19.5001C95 19.7001 94.8 19.9001 95.1 20.0001C95.4 19.6001 95.7 19.3001 96 18.9001L96.1 18.7001C96.2 18.7001 96.2 18.6001 96.2 18.5001L96.3 18.4001C96.6 18.1001 97.5 17.1001 97.4 17.0001C97.1 16.7001 97 17.3001 96.6 17.0001C96.4 16.8001 95.8 15.8001 95.7 15.6001C95.5 15.3001 96.1 15.0001 96.3 14.9001C96.8 14.6001 98.4 14.1001 98.6 15.1001C98.6 15.3001 98.4 15.5001 98.5 15.6001C98.5 15.6001 98.6 15.8001 98.7 15.7001L100.8 13.1001C100.7 13.0001 100.7 13.0001 100.6 12.9001C100.1 13.4001 95.1 11.4001 94.8 11.1001C94.7 10.9001 94.7 10.3001 94.5 10.3001ZM94.3 12.9001C95.1 13.2001 95.8 13.5001 96.6 13.9001C96.4 14.0001 96.2 14.1001 96 14.2001C95.8 14.3001 95.6 14.5001 95.4 14.7001L94.3 12.9001ZM87.7 20.6001C86.6 20.5001 85.5 21.0001 84.7 21.9001C83.5 23.4001 83.6 25.6001 85.1 26.8001C86.6 28.0001 88.8 27.7001 90 26.3001C91.2 24.8001 91.1 22.6001 89.6 21.4001C89.1 21.0001 88.4 20.7001 87.7 20.6001ZM86.3 22.2001C86.9 22.2001 87.6 22.6001 88 22.9001C88.8 23.4001 90.2 24.6001 89.5 25.6001C89.5 25.5001 89.6 25.5001 89.4 25.7001C88.6 26.5001 87.2 25.8001 86.5 25.2001C85.8 24.7001 84.5 23.5001 85.3 22.5001C85.6 22.3001 85.9 22.2001 86.3 22.2001ZM83.2 26.5001C82 26.4001 80.8 27.0001 79.9 28.1001C79.3 28.9001 78.6 29.6001 78 30.4001C78.2 30.7001 78.5 30.3001 78.8 30.5001C79.1 30.7001 82.9 33.8001 82.9 34.0001C83 34.3001 82.7 34.4001 83 34.6001C83.1 34.7001 85.9 31.2001 86.2 30.6001C86.6 29.5001 86.3 28.2001 85.4 27.4001C85.5 27.5001 85.6 27.5001 85.4 27.4001C84.6 26.8001 83.9 26.5001 83.2 26.5001ZM82.1 28.1001C82.2 28.1001 82.3 28.1001 82.4 28.1001C83.8 28.5001 85.8 30.2001 84.5 31.7001C84.3 31.9001 84.5 31.7001 84.1 32.1001C83.9 32.3001 79.9 29.1001 80.1 28.9001C80.5 28.4001 81.4 28.0001 82.1 28.1001Z" fill="white"/>
</g>
<defs>
<clipPath id="clip0_36517_95">
<rect width="138" height="70" fill="white"/>
</clipPath>
</defs>
</svg>
